<?xml version="1.0" encoding="utf-8"?>
<!-- Generator: Adobe Illustrator 23.0.3, SVG Export Plug-In . SVG Version: 6.00 Build 0)  -->
<svg version="1.1" id="Layer_1" xmlns="http://www.w3.org/2000/svg" xmlns:xlink="http://www.w3.org/1999/xlink" x="0px" y="0px"
	 viewBox="0 0 256 256" style="enable-background:new 0 0 256 256;" xml:space="preserve">
<style type="text/css">
	.st0{fill:#A086E2;}
	.st1{fill:#512698;}
</style>
<g>
	<path class="st0" d="M0,0v256h256V0H0z M168.99,23.55c17.55,0,25.43,18.09,25.43,33.32c0,19.04-13.33,46.78-35.36,46.78
		c-17.55,0-25.43-18.09-25.43-33.32C133.63,51.29,146.83,23.55,168.99,23.55z M84.13,23.55c22.17,0,35.36,27.74,35.36,46.78
		c0,15.23-7.89,33.32-25.43,33.32c-22.03,0-35.36-27.74-35.36-46.78C58.7,41.64,66.58,23.55,84.13,23.55z M13.28,116.58
		c0-13.2,7.07-27.06,21.9-27.06c21.76,0,37.67,26.79,37.67,46.51v0v0.01v0c0,13.19-6.94,26.93-21.9,26.93
		C29.19,162.96,13.28,136.29,13.28,116.58z M175.39,232.45c-18.23,0-32.91-12.24-50.32-12.24c-18.23,0-33.73,12.11-53.45,12.11
		c-13.2,0-24.89-4.49-24.89-19.85c0-32.23,45.02-80.1,78.34-80.1v-0.01c33.32,0,78.34,48.01,78.34,80.1
		C203.41,229.72,189.27,232.45,175.39,232.45z M205.05,162.95c-14.96,0-21.9-13.74-21.9-26.93c0-19.72,15.91-46.51,37.67-46.51v0.01
		c14.82,0,21.9,13.87,21.9,27.06C242.72,136.29,226.81,162.95,205.05,162.95z"/>
	<polygon class="st1" points="72.85,136.03 72.85,136.03 72.85,136.03 	"/>
	<path class="st1" d="M125.08,132.35L125.08,132.35c-33.32,0.01-78.34,47.88-78.34,80.11c0,15.36,11.69,19.85,24.89,19.85
		c19.72,0,35.23-12.11,53.45-12.11c17.41,0,32.09,12.24,50.32,12.24c13.88,0,28.02-2.72,28.02-19.99
		C203.41,180.36,158.39,132.35,125.08,132.35z"/>
	<path class="st1" d="M220.82,89.51L220.82,89.51c-21.76-0.01-37.67,26.78-37.67,46.51c0,13.2,6.94,26.93,21.9,26.93
		c21.76,0,37.67-26.65,37.67-46.38C242.72,103.38,235.64,89.51,220.82,89.51z"/>
	<path class="st1" d="M94.05,103.65c17.55,0,25.43-18.09,25.43-33.32c0-19.04-13.19-46.78-35.36-46.78
		c-17.55,0-25.43,18.09-25.43,33.32C58.7,75.91,72.02,103.65,94.05,103.65z"/>
	<path class="st1" d="M72.85,136.03c0-19.72-15.91-46.51-37.67-46.51c-14.83,0-21.9,13.87-21.9,27.06
		c0,19.71,15.91,46.38,37.67,46.38C65.91,162.96,72.85,149.22,72.85,136.03z"/>
	<path class="st1" d="M159.06,103.65c22.03,0,35.36-27.74,35.36-46.78c0-15.23-7.89-33.32-25.43-33.32
		c-22.16,0-35.36,27.74-35.36,46.78C133.63,85.57,141.52,103.65,159.06,103.65z"/>
</g>
</svg>
